<?xml version="1.0" encoding="UTF-8" standalone="no"?>
<!DOCTYPE svg PUBLIC "-//W3C//DTD SVG 1.1//EN"
 "http://www.w3.org/Graphics/SVG/1.1/DTD/svg11.dtd">
<!-- Generated by graphviz version 2.43.0 (0)
 -->
<!-- Title: G Pages: 1 -->
<svg width="488pt" height="177pt"
 viewBox="0.00 0.00 487.50 177.00" xmlns="http://www.w3.org/2000/svg" xmlns:xlink="http://www.w3.org/1999/xlink">
<g id="graph0" class="graph" transform="scale(1 1) rotate(0) translate(4 173)">
<title>G</title>
<polygon fill="white" stroke="transparent" points="-4,4 -4,-173 483.5,-173 483.5,4 -4,4"/>
<!-- UEFI -->
<g id="node1" class="node">
<title>UEFI</title>
<polygon fill="none" stroke="tomato" points="0,-110.5 0,-168.5 125,-168.5 125,-110.5 0,-110.5"/>
<polygon fill="tomato" stroke="transparent" points="8.5,-139.5 8.5,-164.5 117.5,-164.5 117.5,-139.5 8.5,-139.5"/>
<polygon fill="none" stroke="tomato" points="8.5,-139.5 8.5,-164.5 117.5,-164.5 117.5,-139.5 8.5,-139.5"/>
<text text-anchor="start" x="44" y="-148.3" font-family="Times,serif" font-size="14.00"> UEFI </text>
<polygon fill="none" stroke="tomato" points="8.5,-114.5 8.5,-139.5 32.5,-139.5 32.5,-114.5 8.5,-114.5"/>
<text text-anchor="start" x="13.5" y="-123.3" font-family="Times,serif" font-size="14.00">pk</text>
<polygon fill="none" stroke="tomato" points="32.5,-114.5 32.5,-139.5 62.5,-139.5 62.5,-114.5 32.5,-114.5"/>
<text text-anchor="start" x="37.5" y="-123.3" font-family="Times,serif" font-size="14.00">kek</text>
<polygon fill="none" stroke="tomato" points="62.5,-114.5 62.5,-139.5 86.5,-139.5 86.5,-114.5 62.5,-114.5"/>
<text text-anchor="start" x="67.5" y="-123.3" font-family="Times,serif" font-size="14.00">db</text>
<polygon fill="none" stroke="tomato" points="86.5,-114.5 86.5,-139.5 117.5,-139.5 117.5,-114.5 86.5,-114.5"/>
<text text-anchor="start" x="91.5" y="-123.3" font-family="Times,serif" font-size="14.00">dbx</text>
</g>
<!-- Shim -->
<g id="node4" class="node">
<title>Shim</title>
<polygon fill="none" stroke="gold" points="88,-0.5 88,-58.5 151,-58.5 151,-0.5 88,-0.5"/>
<polygon fill="gold" stroke="transparent" points="96.5,-29.5 96.5,-54.5 143.5,-54.5 143.5,-29.5 96.5,-29.5"/>
<polygon fill="none" stroke="gold" points="96.5,-29.5 96.5,-54.5 143.5,-54.5 143.5,-29.5 96.5,-29.5"/>
<text text-anchor="start" x="101.5" y="-38.3" font-family="Times,serif" font-size="14.00"> Shim </text>
<polygon fill="none" stroke="gold" points="96.5,-4.5 96.5,-29.5 143.5,-29.5 143.5,-4.5 96.5,-4.5"/>
<text text-anchor="start" x="107.5" y="-13.3" font-family="Times,serif" font-size="14.00">mok</text>
</g>
<!-- UEFI&#45;&gt;Shim -->
<g id="edge1" class="edge">
<title>UEFI&#45;&gt;Shim</title>
<path fill="none" stroke="black" d="M58.09,-110.41C57.59,-99.51 58.61,-87.21 63.5,-77 67.35,-68.97 73.32,-61.84 79.95,-55.72"/>
<polygon fill="black" stroke="black" points="82.54,-58.12 87.95,-49.01 78.04,-52.76 82.54,-58.12"/>
<text text-anchor="middle" x="109" y="-80.8" font-family="Times,serif" font-size="14.00">Check Signature</text>
</g>
<!-- GRUB -->
<g id="node2" class="node">
<title>GRUB</title>
<ellipse fill="gold" stroke="gold" cx="233.5" cy="-139.5" rx="35.19" ry="18"/>
<text text-anchor="middle" x="233.5" y="-135.8" font-family="Times,serif" font-size="14.00">GRUB</text>
</g>
<!-- Linux -->
<g id="node5" class="node">
<title>Linux</title>
<ellipse fill="springgreen" stroke="springgreen" cx="347.5" cy="-29.5" rx="55.79" ry="18"/>
<text text-anchor="middle" x="347.5" y="-25.8" font-family="Times,serif" font-size="14.00">Linux kernel</text>
</g>
<!-- GRUB&#45;&gt;Linux -->
<g id="edge3" class="edge">
<title>GRUB&#45;&gt;Linux</title>
<path fill="none" stroke="black" d="M246.04,-122.59C256.53,-109.71 272.18,-91.41 287.5,-77 296.63,-68.41 307.26,-59.78 317.02,-52.33"/>
<polygon fill="black" stroke="black" points="319.4,-54.92 325.3,-46.12 315.2,-49.32 319.4,-54.92"/>
<text text-anchor="middle" x="333" y="-80.8" font-family="Times,serif" font-size="14.00">Check Signature</text>
</g>
<!-- Module -->
<g id="node3" class="node">
<title>Module</title>
<ellipse fill="springgreen" stroke="springgreen" cx="404.5" cy="-139.5" rx="63.89" ry="18"/>
<text text-anchor="middle" x="404.5" y="-135.8" font-family="Times,serif" font-size="14.00">Kernel module</text>
</g>
<!-- Shim&#45;&gt;GRUB -->
<g id="edge2" class="edge">
<title>Shim&#45;&gt;GRUB</title>
<path fill="none" stroke="black" d="M144.79,-58.75C154.71,-69.44 166.37,-81.55 177.5,-92 186.76,-100.7 197.39,-109.73 206.88,-117.51"/>
<polygon fill="black" stroke="black" points="204.89,-120.4 214.86,-123.97 209.29,-114.95 204.89,-120.4"/>
<text text-anchor="middle" x="223" y="-80.8" font-family="Times,serif" font-size="14.00">Check Signature</text>
</g>
<!-- Linux&#45;&gt;Module -->
<g id="edge4" class="edge">
<title>Linux&#45;&gt;Module</title>
<path fill="none" stroke="black" d="M362.11,-47.32C368.96,-55.81 376.84,-66.5 382.5,-77 388.39,-87.93 393.27,-100.76 396.92,-111.86"/>
<polygon fill="black" stroke="black" points="393.6,-112.97 399.92,-121.47 400.28,-110.89 393.6,-112.97"/>
<text text-anchor="middle" x="434" y="-80.8" font-family="Times,serif" font-size="14.00">Check Signature</text>
</g>
</g>
</svg>
